<svg id="Layer_1" data-name="Layer 1" xmlns="http://www.w3.org/2000/svg" xmlns:xlink="http://www.w3.org/1999/xlink" width="146.05mm" height="259.64444mm" viewBox="0 0 414 736"><defs><style>.cls-1{fill:none;}.cls-2{fill:#fff;}.cls-3{clip-path:url(#clip-path);}.cls-4{fill:url(#linear-gradient);}.cls-5{fill:url(#New_Gradient_Swatch_27);}.cls-6{fill:url(#New_Gradient_Swatch_27-2);}.cls-7{fill:url(#New_Gradient_Swatch_27-3);}.cls-8{fill:url(#New_Gradient_Swatch_27-4);}.cls-9{fill:url(#New_Gradient_Swatch_27-5);}.cls-10{fill:url(#linear-gradient-2);}.cls-11{fill:url(#New_Gradient_Swatch_13);}.cls-12{fill:url(#New_Gradient_Swatch_27-6);}.cls-13{fill:url(#linear-gradient-3);}.cls-14{fill:url(#New_Gradient_Swatch_13-2);}.cls-15{fill:url(#linear-gradient-4);}.cls-16{fill:url(#linear-gradient-5);}.cls-17{fill:url(#linear-gradient-6);}.cls-18{fill:url(#linear-gradient-7);}.cls-19{fill:url(#linear-gradient-8);}.cls-20{fill:url(#linear-gradient-9);}.cls-21{fill:url(#New_Gradient_Swatch_14);}.cls-22{fill:url(#New_Gradient_Swatch_13-3);}.cls-23{fill:url(#New_Gradient_Swatch_13-4);}.cls-24{fill:url(#New_Gradient_Swatch_13-5);}.cls-25{fill:url(#New_Gradient_Swatch_13-6);}.cls-26{opacity:0.46;fill:url(#linear-gradient-10);}.cls-27{fill:url(#New_Gradient_Swatch_14-2);}.cls-28{fill:url(#linear-gradient-11);}.cls-29{fill:url(#linear-gradient-12);}.cls-30{fill:url(#linear-gradient-13);}.cls-31{fill:url(#linear-gradient-14);}.cls-32{fill:url(#linear-gradient-15);}.cls-33{fill:url(#linear-gradient-16);}.cls-34{fill:url(#New_Gradient_Swatch_13-7);}.cls-35{fill:url(#linear-gradient-17);}.cls-36{fill:url(#New_Gradient_Swatch_13-8);}.cls-37{fill:url(#linear-gradient-18);}.cls-38{fill:url(#linear-gradient-19);}.cls-39{fill:url(#linear-gradient-20);}.cls-40,.cls-41,.cls-42,.cls-43,.cls-44,.cls-45,.cls-46,.cls-47{opacity:0.44;}.cls-40{fill:url(#linear-gradient-21);}.cls-41{fill:url(#linear-gradient-22);}.cls-42{fill:url(#linear-gradient-23);}.cls-43{fill:url(#linear-gradient-24);}.cls-44{fill:url(#linear-gradient-25);}.cls-45{fill:url(#linear-gradient-26);}.cls-46{fill:url(#linear-gradient-27);}.cls-47{fill:url(#linear-gradient-28);}.cls-48{opacity:0.73;fill:url(#linear-gradient-29);}</style><clipPath id="clip-path"><rect class="cls-1" width="414" height="736"/></clipPath><linearGradient id="linear-gradient" x1="418.3459" y1="228.22771" x2="867.20169" y2="85.11428" gradientUnits="userSpaceOnUse"><stop offset="0" stop-color="#f3f8f6"/><stop offset="0.09317" stop-color="#e6f3f2"/><stop offset="0.26558" stop-color="#c4e5e6"/><stop offset="0.49817" stop-color="#8cced4"/><stop offset="0.77876" stop-color="#41afbb"/><stop offset="1" stop-color="#0094a6"/></linearGradient><linearGradient id="New_Gradient_Swatch_27" x1="24.42869" y1="19.85082" x2="140.67348" y2="19.85082" gradientUnits="userSpaceOnUse"><stop offset="0" stop-color="#ebf4ea"/><stop offset="0.49028" stop-color="#c1e5f9"/><stop offset="1" stop-color="#0094a6"/></linearGradient><linearGradient id="New_Gradient_Swatch_27-2" x1="80.67224" y1="16.78113" x2="61.48747" y2="16.78113" xlink:href="#New_Gradient_Swatch_27"/><linearGradient id="New_Gradient_Swatch_27-3" x1="327.31159" y1="8.53993" x2="443.55638" y2="8.53993" xlink:href="#New_Gradient_Swatch_27"/><linearGradient id="New_Gradient_Swatch_27-4" x1="383.55514" y1="9.37101" x2="364.37037" y2="9.37101" xlink:href="#New_Gradient_Swatch_27"/><linearGradient id="New_Gradient_Swatch_27-5" x1="-23.81798" y1="58.18826" x2="830.59144" y2="58.18826" xlink:href="#New_Gradient_Swatch_27"/><linearGradient id="linear-gradient-2" x1="10.50938" y1="306.96897" x2="436.22594" y2="520.67868" gradientUnits="userSpaceOnUse"><stop offset="0" stop-color="#22ade1"/><stop offset="0.34687" stop-color="#21709c"/><stop offset="0.64947" stop-color="#204268"/><stop offset="0.8757" stop-color="#1f2547"/><stop offset="1" stop-color="#1f1a3b"/></linearGradient><linearGradient id="New_Gradient_Swatch_13" x1="-25.66072" y1="340.49154" x2="127.19405" y2="440.16122" gradientUnits="userSpaceOnUse"><stop offset="0" stop-color="#22ade1"/><stop offset="1" stop-color="#1f1a3b"/></linearGradient><linearGradient id="New_Gradient_Swatch_27-6" x1="479.12158" y1="150.10448" x2="-267.12913" y2="150.10448" xlink:href="#New_Gradient_Swatch_27"/><linearGradient id="linear-gradient-3" x1="196.84231" y1="117.74613" x2="195.21548" y2="447.99344" gradientUnits="userSpaceOnUse"><stop offset="0" stop-color="#ebf4ea"/><stop offset="0.60803" stop-color="#c1e5f9"/><stop offset="1" stop-color="#0094a6"/></linearGradient><linearGradient id="New_Gradient_Swatch_13-2" x1="285.80541" y1="150.94037" x2="279.82881" y2="428.42539" xlink:href="#New_Gradient_Swatch_13"/><linearGradient id="linear-gradient-4" x1="518.59251" y1="218.04726" x2="598.27628" y2="462.45047" gradientUnits="userSpaceOnUse"><stop offset="0" stop-color="#22ade1"/><stop offset="0.01193" stop-color="#2ad"/><stop offset="0.19012" stop-color="#217eac"/><stop offset="0.36673" stop-color="#205a84"/><stop offset="0.53855" stop-color="#203e64"/><stop offset="0.70427" stop-color="#1f2a4d"/><stop offset="0.86115" stop-color="#1f1e40"/><stop offset="1" stop-color="#1f1a3b"/></linearGradient><linearGradient id="linear-gradient-5" x1="255.51465" y1="282.62751" x2="329.03179" y2="397.85149" gradientUnits="userSpaceOnUse"><stop offset="0" stop-color="#ebf4ea"/><stop offset="0.4428" stop-color="#c1e5f9"/><stop offset="0.47543" stop-color="#a7daee"/><stop offset="0.5383" stop-color="#7bc8db"/><stop offset="0.60406" stop-color="#55b8cb"/><stop offset="0.67197" stop-color="#36abbd"/><stop offset="0.7427" stop-color="#1ea1b3"/><stop offset="0.81749" stop-color="#0d9aac"/><stop offset="0.89903" stop-color="#0395a7"/><stop offset="1" stop-color="#0094a6"/></linearGradient><linearGradient id="linear-gradient-6" x1="250.83554" y1="310.85485" x2="223.51254" y2="245.96273" gradientUnits="userSpaceOnUse"><stop offset="0" stop-color="#f1b163"/><stop offset="0.3852" stop-color="#f1b163"/><stop offset="0.41877" stop-color="#ebac61"/><stop offset="0.67211" stop-color="#c58853"/><stop offset="0.8747" stop-color="#ad714b"/><stop offset="1" stop-color="#a46948"/></linearGradient><linearGradient id="linear-gradient-7" x1="371.0927" y1="199.09053" x2="323.64978" y2="291.14864" gradientUnits="userSpaceOnUse"><stop offset="0" stop-color="#0094a6"/><stop offset="1" stop-color="#0094a6"/></linearGradient><linearGradient id="linear-gradient-8" x1="147.46145" y1="246.18829" x2="333.07386" y2="503.32109" xlink:href="#linear-gradient-7"/><linearGradient id="linear-gradient-9" x1="20.29982" y1="431.71916" x2="431.16611" y2="705.37162" gradientUnits="userSpaceOnUse"><stop offset="0" stop-color="#22ade1"/><stop offset="0.02566" stop-color="#22a8dc"/><stop offset="0.37098" stop-color="#216c97"/><stop offset="0.65986" stop-color="#203f65"/><stop offset="0.87799" stop-color="#1f2447"/><stop offset="1" stop-color="#1f1a3b"/></linearGradient><linearGradient id="New_Gradient_Swatch_14" x1="356.636" y1="346.43731" x2="388.14751" y2="346.43731" gradientUnits="userSpaceOnUse"><stop offset="0" stop-color="#f1b163"/><stop offset="0.3852" stop-color="#f1b163"/><stop offset="1" stop-color="#a46948"/></linearGradient><linearGradient id="New_Gradient_Swatch_13-3" x1="198.94507" y1="87.00631" x2="260.8408" y2="214.56806" xlink:href="#New_Gradient_Swatch_13"/><linearGradient id="New_Gradient_Swatch_13-4" x1="250.78448" y1="455.55639" x2="360.1321" y2="455.55639" xlink:href="#New_Gradient_Swatch_13"/><linearGradient id="New_Gradient_Swatch_13-5" x1="227.88525" y1="462.50311" x2="296.70544" y2="462.50311" xlink:href="#New_Gradient_Swatch_13"/><linearGradient id="New_Gradient_Swatch_13-6" x1="397.66883" y1="368.31558" x2="397.66883" y2="487.77866" xlink:href="#New_Gradient_Swatch_13"/><linearGradient id="linear-gradient-10" x1="397.82787" y1="419.8552" x2="365.13518" y2="369.18154" gradientUnits="userSpaceOnUse"><stop offset="0" stop-color="#1f1a3b" stop-opacity="0"/><stop offset="0.33524" stop-color="#1f1a3b" stop-opacity="0.27434"/><stop offset="0.98995" stop-color="#1f1a3b" stop-opacity="0.98812"/><stop offset="1" stop-color="#1f1a3b"/></linearGradient><linearGradient id="New_Gradient_Swatch_14-2" x1="182.66328" y1="166.0714" x2="257.1337" y2="231.67629" xlink:href="#New_Gradient_Swatch_14"/><linearGradient id="linear-gradient-11" x1="204.86217" y1="251.57683" x2="204.86217" y2="187.57385" gradientUnits="userSpaceOnUse"><stop offset="0" stop-color="#f1b163"/><stop offset="0.54258" stop-color="#f1b163"/><stop offset="1" stop-color="#a46948"/></linearGradient><linearGradient id="linear-gradient-12" x1="239.13414" y1="252.43908" x2="239.13414" y2="188.2031" xlink:href="#linear-gradient-11"/><linearGradient id="linear-gradient-13" x1="205.16942" y1="256.43034" x2="205.16942" y2="187.11629" xlink:href="#linear-gradient-11"/><linearGradient id="linear-gradient-14" x1="237.88173" y1="257.25218" x2="237.88173" y2="191.60956" xlink:href="#linear-gradient-11"/><linearGradient id="linear-gradient-15" x1="223.52472" y1="221.06769" x2="223.11782" y2="214.19562" gradientUnits="userSpaceOnUse"><stop offset="0" stop-color="#a46948" stop-opacity="0"/><stop offset="0.1194" stop-color="#a46948" stop-opacity="0.04115"/><stop offset="0.2902" stop-color="#a46948" stop-opacity="0.15609"/><stop offset="0.49188" stop-color="#a46948" stop-opacity="0.34467"/><stop offset="0.7172" stop-color="#a46948" stop-opacity="0.60713"/><stop offset="0.95934" stop-color="#a46948" stop-opacity="0.93959"/><stop offset="1" stop-color="#a46948"/></linearGradient><linearGradient id="linear-gradient-16" x1="144.68709" y1="142.31483" x2="225.90275" y2="214.43433" gradientUnits="userSpaceOnUse"><stop offset="0" stop-color="#22ade1"/><stop offset="0.07918" stop-color="#229bcd"/><stop offset="0.30673" stop-color="#216e99"/><stop offset="0.52017" stop-color="#204971"/><stop offset="0.71344" stop-color="#1f2f53"/><stop offset="0.87976" stop-color="#1f2041"/><stop offset="1" stop-color="#1f1a3b"/></linearGradient><linearGradient id="New_Gradient_Swatch_13-7" x1="138.64788" y1="142.35836" x2="189.2499" y2="198.46809" xlink:href="#New_Gradient_Swatch_13"/><linearGradient id="linear-gradient-17" x1="109.30937" y1="237.04916" x2="130.34714" y2="287.13908" xlink:href="#linear-gradient-11"/><linearGradient id="New_Gradient_Swatch_13-8" x1="51.85029" y1="239.02589" x2="225.14166" y2="422.9356" xlink:href="#New_Gradient_Swatch_13"/><linearGradient id="linear-gradient-18" x1="316.53856" y1="179.84474" x2="326.62624" y2="313.5065" xlink:href="#linear-gradient-7"/><linearGradient id="linear-gradient-19" x1="220.18568" y1="242.81427" x2="220.18568" y2="225.5415" gradientUnits="userSpaceOnUse"><stop offset="0" stop-color="#f1b163"/><stop offset="0.4378" stop-color="#f1b163"/><stop offset="1" stop-color="#a46948"/></linearGradient><linearGradient id="linear-gradient-20" x1="220.13123" y1="217.04052" x2="220.20216" y2="224.70134" gradientUnits="userSpaceOnUse"><stop offset="0" stop-color="#f1b163"/><stop offset="0.22357" stop-color="#f1b163"/><stop offset="1" stop-color="#a46948"/></linearGradient><linearGradient id="linear-gradient-21" x1="820.07802" y1="144.84997" x2="1063.58594" y2="74.06278" gradientTransform="matrix(1, 0, -0.04503, 1, -243.82814, 0)" gradientUnits="userSpaceOnUse"><stop offset="0" stop-color="#c1e5f9" stop-opacity="0"/><stop offset="1" stop-color="#0094a6"/></linearGradient><linearGradient id="linear-gradient-22" x1="102.50032" y1="191.83484" x2="191.9998" y2="250.58602" gradientUnits="userSpaceOnUse"><stop offset="0" stop-color="#fffffd" stop-opacity="0"/><stop offset="0.19438" stop-color="#fffffd" stop-opacity="0.01097"/><stop offset="0.32824" stop-color="#fffffd" stop-opacity="0.04647"/><stop offset="0.44399" stop-color="#fffffd" stop-opacity="0.1068"/><stop offset="0.54942" stop-color="#fffffd" stop-opacity="0.19207"/><stop offset="0.64781" stop-color="#fffffe" stop-opacity="0.30239"/><stop offset="0.74109" stop-color="#fffffe" stop-opacity="0.43804"/><stop offset="0.83029" stop-color="#fffffe" stop-opacity="0.59909"/><stop offset="0.91514" stop-color="#fff" stop-opacity="0.78326"/><stop offset="0.99582" stop-color="#fff" stop-opacity="0.98852"/><stop offset="1" stop-color="#fff"/></linearGradient><linearGradient id="linear-gradient-23" x1="450.13296" y1="154.35804" x2="527.90313" y2="86.48589" gradientTransform="matrix(1, 0, -0.04795, 1, -260.82831, 0)" gradientUnits="userSpaceOnUse"><stop offset="0" stop-color="#fffffd" stop-opacity="0"/><stop offset="0.11101" stop-color="#fffffd" stop-opacity="0.01795"/><stop offset="0.23496" stop-color="#fffffd" stop-opacity="0.07073"/><stop offset="0.3652" stop-color="#fffffd" stop-opacity="0.15846"/><stop offset="0.49985" stop-color="#fffffe" stop-opacity="0.28133"/><stop offset="0.63785" stop-color="#fffffe" stop-opacity="0.4394"/><stop offset="0.77871" stop-color="#fffffe" stop-opacity="0.6329"/><stop offset="0.91917" stop-color="#fff" stop-opacity="0.85716"/><stop offset="1" stop-color="#fff"/></linearGradient><linearGradient id="linear-gradient-24" x1="1382.82812" y1="207.66913" x2="1544.81858" y2="156.02" gradientTransform="matrix(1, 0, -0.21459, 1, -1161.23969, 0)" xlink:href="#linear-gradient-23"/><linearGradient id="linear-gradient-25" x1="353.31702" y1="292.16534" x2="451.32109" y2="356.49931" gradientTransform="matrix(1, 0, 0, 1, 0, 0)" xlink:href="#linear-gradient-23"/><linearGradient id="linear-gradient-26" x1="-1070.00003" y1="146.53005" x2="-935.00003" y2="211.53005" gradientTransform="matrix(1, 0, 0.16593, 1, 909.9796, 0)" gradientUnits="userSpaceOnUse"><stop offset="0" stop-color="#ebf4ea" stop-opacity="0.4"/><stop offset="0.49028" stop-color="#c1e5f9" stop-opacity="0.7"/><stop offset="1" stop-color="#0094a6"/></linearGradient><linearGradient id="linear-gradient-27" x1="-270.55496" y1="287.30203" x2="10.83169" y2="110.55163" gradientTransform="matrix(1, 0, 0, 1, 0, 0)" xlink:href="#linear-gradient-26"/><linearGradient id="linear-gradient-28" x1="-4931.07314" y1="235.25043" x2="-4837.91927" y2="296.40052" gradientTransform="matrix(1, 0, 0.97937, 1, 5299.89668, 0)" xlink:href="#linear-gradient-23"/><linearGradient id="linear-gradient-29" x1="-816.53956" y1="226.78149" x2="-727.04009" y2="285.53268" gradientTransform="matrix(1, 0, 0.09521, 1, 519.18841, 0)" xlink:href="#linear-gradient-23"/></defs><title>ari-m</title><rect class="cls-2" width="414" height="736"/><g class="cls-3"><rect class="cls-4" x="-687.27742" y="-37.14967" width="1428.58413" height="780.29934"/><rect class="cls-5" x="37.60278" y="-222.41685" width="29.18028" height="484.53536"/><rect class="cls-6" x="66.78306" y="-228.55625" width="6.22966" height="490.67475"/><rect class="cls-7" x="340.48568" y="-245.03864" width="29.18028" height="507.15715"/><rect class="cls-8" x="369.66596" y="-243.37648" width="6.22966" height="505.49498"/><polygon class="cls-9" points="73.013 -145.742 287.49 -33.113 287.49 262.119 73.013 262.119 73.013 -145.742"/><path class="cls-10" d="M52.19292,303.34965S31.51352,333.68637,25.844,341.23842c-3.79958,5.06123-7.2941,13.99285-7.2941,13.99285s.05692.48151,25.1742,2.18438,103.73293,0,103.73293,0l-56.05268-54.066Z"/><path class="cls-11" d="M21.99915,467.25052s-.44327-59.83672-1.707-74.31108-3.81389-30.17772-1.8861-37.27836c2.19692-8.09192,28.7238-10.59121,54.69251-9.31406s60.87747,2.5543,60.87747,2.5543l54.066,102.38483Z"/><path class="cls-12" d="M-108.39871,134.36576c102.89888,0,581.31,2.52871,581.31,2.52871V165.8432l-563.25116-2.52967Z"/><polygon class="cls-13" points="472.911 136.894 432.468 129.232 -79.359 125.4 -72.755 134.34 472.911 136.894"/><path class="cls-14" d="M63.85118,264.87946s-.95622-16.3266,2.93188-20.55177c3.11483-3.38486,12.02819-2.42313,19.46984-2.42313,29.73748,0,227.95771,2.2742,268.57907,2.42319s100.61925-3.51449,110.23116-3.98407c8.05182-.39329,23.60386-2.89894,31.49461,7.23718,6.46809,8.30875,4.81168,96.21186,4.81168,96.21186s-246.69887,19.93651-273.605,15.71543S63.85118,264.87946,63.85118,264.87946Z"/><path class="cls-15" d="M381.31735,296.53818s10.64292-10.2172,64.2832,8.94,145.27343,67.705,151.35893,68.96608c12.13911,2.51561,38.51065-2.5543,68.73653,0s99.24489,14.47282,99.24489,14.47282l-1.99287,30.095s-106.16578,5.66825-119.70765,6.51817a160.62715,160.62715,0,0,1-18.83888,0s-23.08668,4.22927-36.28389,2.10068S382.5945,383.38436,381.31735,381.68149,381.31735,296.53818,381.31735,296.53818Z"/><polygon class="cls-16" points="312.648 445.842 286.012 442.175 198.73 325.289 188.042 247.033 267.572 266.098 366.738 325.289 363.05 414.846 312.648 445.842"/><path class="cls-17" d="M188.042,238.215s30.39009,46.94946,53.23579,54.18664,20.83889-31.24873,20.83889-31.24873L239.271,216.50347S227.25078,238.215,218.9279,238.215,188.042,213.63608,188.042,213.63608Z"/><path class="cls-18" d="M245.79758,206.42818s-.14523,6.57006-6.52657,12.38647a9.6742,9.6742,0,0,0-1.98776,12.50076s11.21054,32.4426,29.94207,55.00557,42.183,54.3863,73.26036,52.25772,44.51037-42.29319,67.8646-42.41743c10.85535-.05774,31.45626,7.30443,31.45626,7.30443s-22.68926-14.37876-39.75766-12.35747c-24.6934,2.92428-43.8488-14.153-43.8488-14.153s-68.96609-70.38514-79.609-70.527S245.79758,206.42818,245.79758,206.42818Z"/><path class="cls-19" d="M186.6153,231.31541S201.525,259.44488,203.205,276.04782s.42536,40.38625,4.44273,47.5761A49.16732,49.16732,0,0,0,223.168,340.387a172.78417,172.78417,0,0,0,24.61625,14.47436c18.27038,8.70306,31.39034,22.49949,39.024,31.07731s1.52793,16.30582,2.68655,24.26584c2.063,14.17351,18.37034,34.56054,18.37034,34.56054L294.442,445.842s-36.86622-62.88335-48.64438-74.3777-41.01069-33.20589-49.80883-41.72022-18.58963-34.90876-34.76686-44.70024-50.66027-20.86011-50.66027-20.86011,12.34578-19.27755,34.90876-19.856S186.6153,231.31541,186.6153,231.31541Z"/><path class="cls-20" d="M29.24976,445.11326c5.1086-5.96,5.46458-7.28356,24.69156-6.81147,97.85226,2.40262,180.59193,6.832,248.19275,6.923,144.55294.19472,205.62268-8.59774,210.90739-3.06327C522.09491,451.64289,483,736,483,736H0L-64.46632,586.67763Z"/><path class="cls-21" d="M388.14751,321.00815v50.85832l-31.50727-.00007c2.05154-.00021,2.0473-40.01756-.00424-40.01736Z"/><path class="cls-22" d="M212.23393,113.348c9.71836-1.95813,15.98147-.7949,23.48836,7.65312,18.87621,21.24259,21.85345,38.45638,21.85345,46.6869s-.92045,15.1837-1.18752,18.498.72337,11.36038,7.86384,15.49286c7.52575,4.35546,17.91128,5.56906,17.91128,5.56906s7.05537,1.53543,4.92679,4.51545-16.03337,1.98534-16.8848,1.87271-9.64957,1.87405-9.64957,1.87405-.42987,7.04337,7.97381,20.44722c2.81413,4.48853-3.0784,15.80691-3.12957,19.312-.099,6.78119,6.50969,6.2036,6.50969,6.2036s-12.97352,2.24994-9.793-7.27061c2.65452-7.94594,5.59416-15.23031-6.38575-16.98066-14.96693-2.18676-19.18518-13.6332-19.18518-13.6332s8.40036-43.55472,8.68417-44.69-2.422-12.16772-2.422-12.16772-23.48522-13.724-30.55772-15.227S204.01348,115.00425,212.23393,113.348Z"/><path class="cls-23" d="M229.92437,450.33115c8.37561.32508,109.34762-8.15646,109.34762-8.15646l-42.56655,26.7634Z"/><path class="cls-24" d="M227.88525,457.21317c31.21243,9.41895,63.67261,17.4619,63.67261,17.4619l5.14758-5.737s-64.74195-18.60694-66.78107-18.60694S227.88525,457.21317,227.88525,457.21317Z"/><path class="cls-25" d="M291.55786,474.67507s40.06745-99.79123,40.57722-102.08523,1.609-3.82335,6.02972-3.82335,164.4914-6.94773,164.4914-6.94773,1.52934,2.10483,1.01956,3.88906-44.35078,94.564-44.86056,95.58358-2.00884,2.03912-4.70032,2.03912-113.82333,11.21906-117.64667,11.34455-26.50852,1.65482-32.11609,1.65482A69.23141,69.23141,0,0,1,291.55786,474.67507Z"/><path class="cls-26" d="M296.70544,473.0907c.17423-.2136,38.19418-97.39941,39.04856-98.89457s1.49516-2.99033,4.69909-2.99033,157.40938-6.27224,157.40938-6.27224Z"/><path class="cls-27" d="M246.99454,175.33788a47.79619,47.79619,0,0,1,.37962,12.50692,19.34035,19.34035,0,0,1-1.24424,4.9739c-1.036,2.65748,1.37053,9.35231-.33234,13.60948s-7.09527,17.02866-10.07529,21.42773a89.855,89.855,0,0,1-6.92038,9.52079c-1.64459,1.80441-6.16566,7.7429-11.84189,7.45909s-16.00458-5.91125-23.66748-13.716-8.23052-12.7715-9.082-16.74485-3.68955-14.04865-3.68955-14.04865-1.76781,1.789-3.47068,1.36331-5.75317-4.05951-6.60461-6.33-2.98-12.62959-2.98-12.62959,8.20467-4.49422,9.48182-4.06851,8.11087-20.14892,13.64518-23.83846,28.11732-3.46815,32.01391-3.46855c7.84759-.00079,15.42334,6.69221,18.57468,11.79492C244.93643,169.22967,245.94287,168.9745,246.99454,175.33788Z"/><path class="cls-28" d="M215.57171,190.251s-7.512-2.43928-9.073-2.865-3.15439-.72713-5.6871-1.22188c-1.81055-.35368-7.60666.3752-6.52575-.02839,2.99505-1.1183,6.7427-2.11662,9.25675-1.51188,2.9561.71108,3.19346.80235,8.88771,3.1094A10.6272,10.6272,0,0,1,215.57171,190.251Z"/><path class="cls-29" d="M230.8975,190.251c-.99545.23706,2.83811-1.89129,6.38575-2.90906,4.15225-1.19123,5.96-1.91573,7.521-1.91573a4.73756,4.73756,0,0,1,2.72656.953l-.15664,1.46563c-1.57658-1.11792-6.59289-.00242-10.80044.98709C235.33819,189.12246,233.77458,189.5658,230.8975,190.251Z"/><path class="cls-30" d="M214.15265,193.94049s-1.5538-2.18493-3.68271-2.32185a34.36483,34.36483,0,0,0-11.92689,1.18661,12.914,12.914,0,0,0-2.5543,1.13524,21.29375,21.29375,0,0,0,5.28161,1.41906c4.82479.1151,7.77747-2.87279,10.33177-1.85266a5.81207,5.81207,0,0,1,2.55052,1.85266C214.59692,196.1796,214.15265,193.94049,214.15265,193.94049Z"/><path class="cls-31" d="M228.76892,195.35955s3.26383-2.69621,5.53432-2.69621,4.27322,1.44311,7.25323,1.656a22.16977,22.16977,0,0,0,5.43807-.29372,6.4736,6.4736,0,0,1-1.82554-1.05172,4.94129,4.94129,0,0,1-.91919-1.22985,39.67919,39.67919,0,0,0-7.68979-.22293C232.44476,191.82067,230.188,193.51478,228.76892,195.35955Z"/><path class="cls-32" d="M215.57171,215.36823a28.40037,28.40037,0,0,1,3.68954,1.27714c1.561.70953,2.41239,1.70287,4.541,1.70287s2.93291-1.38165,3.92625-1.80737,2.45534-.86573,3.02929-1.74027c.24659-.37574-3.83362,7.80481-3.83362,7.80481a10.10251,10.10251,0,0,0-2.66429-.29431c-1.556.16209-3.11732.14218-4.05213.35659a9.90236,9.90236,0,0,1-2.50626-.488,4.46281,4.46281,0,0,0,1.55978-3.365C219.26125,216.64537,215.57171,215.36823,215.57171,215.36823Z"/><path class="cls-33" d="M212.01894,150.09169s-12.39736-.23275-21.905,6.72062-25.23016,19.62463-18.91132,46.50132c6.598,28.064,8.121,36.47238,8.121,36.47238l-23.49411.55759-8.37242-6.62052s9.90007-7.19083,12.21753-22.14467c3.02523-19.52089-3.062-27.87636,1.62541-57.9904,4.17138-26.79889,16.4387-40.05926,34.68875-40.95938a89.21979,89.21979,0,0,1,16.24518.71928s9.40216,33.46556,10.37272,38.00653Z"/><path class="cls-34" d="M150.66634,239.786s25.15674-12.036,28.66388-17.7465,5.91142-5.28665,5.91142-5.28665l-4.7206-16.42662s-4.28731,3.36433-8.42172-7.70857a20.1343,20.1343,0,0,1-1.11439-3.88142,24.06334,24.06334,0,0,1,2.89536-5.26908,23.03274,23.03274,0,0,1,4.1904-4.20055s3.48708-6.69657,12.51451-15.85629a40.57764,40.57764,0,0,1,32.02145-12.05589s-12.47553-6.30269-28.2799,1.53047c-19.106,9.46955-31.59064,21.6934-24.47544,52.70365C174.16455,224.387,150.66634,239.786,150.66634,239.786Z"/><path class="cls-35" d="M63.07071,308.34459s-19.63235.11814-24.394-1.33107-13.04291-9.73043-16.3554-18.63273,19.74026-24.685,31.67565-30.22644c23.1874-10.76558,55.07008-14.69915,65.83565-18.63273s32.50377-10.97261,37.88656-13.457,17.18352-12.21479,18.21868-12.42182,22.88906,4.42161,23.31477,4.56352,10.2172,8.65623,11.77816,9.93338,4.541,3.40573,4.541,3.40573-3.68955,2.69621-6.66956,1.41906-10.3591-7.23718-10.3591-7.23718h-2.4124s3.54764,2.6962,3.68955,3.26382.78458,8.28729.78458,8.28729,2.33734.65276,2.47924,1.07848,4.9667,10.78482,5.25051,11.92006-2.83811.85144-4.9667,0a8.03576,8.03576,0,0,1-2.98-1.84477s-1.41906,9.082-1.27715,9.64958-4.39794-1.41958-5.25051-3.26383a10.08975,10.08975,0,0,1-.70952-3.12192s-.1402-1.69868-.1402-3.11774.23845-3.47329.23845-3.47329-8.8964,2.33386-11.16688,2.90148-10.64292,3.54764-12.20388,3.54764S159.23522,248.716,155.12,249.56745s-17.8801,4.68289-21.71155,6.52766-23.55631,12.062-23.55631,12.062Z"/><path class="cls-36" d="M233.846,451.51826l-3.08167,7.64364s-23.1393,1.70287-42.72226-7.87575-39.59164-36.82448-48.95741-59.38746-9.90247-37.5274-11.17962-40.99864-6.34-2.47-6.34-2.47-19.51775-14.8545-29.73494-20.38881S73.28776,323.57252,67.99,316.12114s-16.64848-18.04754-15.797-22.30471S68.41569,264.08215,73.95,261.15292s27.24586-1.22636,49.80884,4.308,37.41618,11.90144,54.823,38.09232,51.748,53.86246,67.21569,67.9111,56.33649,73.76055,56.33649,73.76055Z"/><path class="cls-37" d="M255.06524,204.65945s43.88872-4.75443,47.91264-.16607c0,0,70.98144,79.42957,81.65452,91.84469,4.05819,4.72056,6.46054,24.24135,6.11595,31.77795a2.18489,2.18489,0,0,1-2.60084,2.27216s-7.39778-5.37056-22.97517,5.23625c-3.06907,2.08976-7.06554,8.484-7.06554,8.484l.05055,7.93978s-8.55588,4.773-13.20741,5.89056c-4.95134,1.18961-11.73856-19.68041-12.16427-23.08614s3.40573-19.15724-1.70287-19.15724-7.23718-5.53432-5.1086-9.79148-8.51433-13.19722-8.51433-17.8801c0-2.63959-26.5761-23.08682-43.87588-45.40492C260.19229,225.34259,255.06524,204.65945,255.06524,204.65945Z"/><path class="cls-38" d="M220.92261,231.33539c5.23511.328,7.16384-3.37795,8.817-4.52709a33.905,33.905,0,0,0,4.133-3.88469s-8.40374,2.45175-11.29683,2.45175-16.07707-2.457-16.07707-2.457S214.96975,230.96246,220.92261,231.33539Z"/><path class="cls-39" d="M206.49873,222.9184c.11137.09814,10.54022-1.22909,12.4963-.665a8.17264,8.17264,0,0,0,3.443.55185c3.39954-.64581,4.26415-.0869,4.26415-.0869,2.61756,0,7.17045.20522,7.17045.20522s-7.85268,3.587-11.84789,3.8708S206.49873,222.9184,206.49873,222.9184Z"/><path class="cls-1" d="M193.24889,245.105l4.87366-1.44407a7.30573,7.30573,0,0,0,1.02242,2.5804c.925,1.60666,1.24285,2.19087,1.24285,2.19087l-.71546,4.77714a25.74,25.74,0,0,1-4.08152-3.94944A23.73848,23.73848,0,0,1,193.24889,245.105Z"/><polygon class="cls-40" points="0 736 336.052 736 777.206 -232.794 59.328 -232.794 0 736"/><polygon class="cls-41" points="-262.164 623.055 -88.842 623.055 479.517 -231.277 -33.41 -231.277 -262.164 623.055"/><polygon class="cls-42" points="476.824 623.055 672.669 623.055 -81.228 -231.277 -408.021 -231.277 476.824 623.055"/><polygon class="cls-43" points="127.397 736 382.985 736 117.415 -232.794 -323.374 -232.794 127.397 736"/><polygon class="cls-44" points="0 736 188.457 736 585.363 -231.277 261.751 -231.277 0 736"/><polygon class="cls-45" points="-330.92 578.195 -129.114 578.195 79.689 -276.136 -243.923 -276.136 -330.92 578.195"/><polygon class="cls-46" points="0 736 266.927 736 -346.827 -247.827 -670.439 -247.827 0 736"/><polygon class="cls-47" points="642.88 623.055 844.686 623.055 358.539 -231.277 34.927 -231.277 642.88 623.055"/><polygon class="cls-48" points="-603.831 655.244 -430.509 655.244 56.51 -199.087 -456.416 -199.087 -603.831 655.244"/></g></svg>